<mxfile host="app.diagrams.net" modified="2021-09-20T09:15:40.884Z" agent="5.0 (Windows NT 10.0; Win64; x64) AppleWebKit/537.36 (KHTML, like Gecko) Chrome/93.0.4577.82 Safari/537.36" etag="eItEzgio-LZJcam5iMMH" version="15.2.9" type="github">
  <diagram id="DyeA0R5ESNiD44GaK_AN" name="Page-1">
    <mxGraphModel dx="865" dy="483" grid="1" gridSize="10" guides="1" tooltips="1" connect="1" arrows="1" fold="1" page="1" pageScale="1" pageWidth="827" pageHeight="1169" math="0" shadow="0">
      <root>
        <mxCell id="0" />
        <mxCell id="1" parent="0" />
        <mxCell id="xJInYHNCrXJ5tW3enrJM-37" value="CUA-PWA" style="swimlane;" parent="1" vertex="1">
          <mxGeometry x="50" y="100" width="520" height="230" as="geometry" />
        </mxCell>
        <mxCell id="xJInYHNCrXJ5tW3enrJM-45" value="" style="pointerEvents=1;shadow=0;dashed=0;html=1;strokeColor=none;fillColor=#505050;labelPosition=center;verticalLabelPosition=bottom;verticalAlign=top;outlineConnect=0;align=center;shape=mxgraph.office.concepts.folder_public;" parent="xJInYHNCrXJ5tW3enrJM-37" vertex="1">
          <mxGeometry x="420" y="160" width="50" height="40" as="geometry" />
        </mxCell>
        <mxCell id="xJInYHNCrXJ5tW3enrJM-46" value="" style="aspect=fixed;html=1;points=[];align=center;image;fontSize=12;image=img/lib/azure2/general/Module.svg;" parent="xJInYHNCrXJ5tW3enrJM-37" vertex="1">
          <mxGeometry x="430" y="100" width="40" height="40" as="geometry" />
        </mxCell>
        <mxCell id="xJInYHNCrXJ5tW3enrJM-48" value="node_modules&lt;br&gt;" style="text;html=1;strokeColor=none;fillColor=none;align=center;verticalAlign=middle;whiteSpace=wrap;rounded=0;" parent="xJInYHNCrXJ5tW3enrJM-37" vertex="1">
          <mxGeometry x="435" y="140" width="40" height="20" as="geometry" />
        </mxCell>
        <mxCell id="xJInYHNCrXJ5tW3enrJM-49" value="public&lt;br&gt;" style="text;html=1;strokeColor=none;fillColor=none;align=center;verticalAlign=middle;whiteSpace=wrap;rounded=0;" parent="xJInYHNCrXJ5tW3enrJM-37" vertex="1">
          <mxGeometry x="420" y="200" width="40" height="20" as="geometry" />
        </mxCell>
        <mxCell id="xJInYHNCrXJ5tW3enrJM-53" value="SRC Folder" style="swimlane;" parent="xJInYHNCrXJ5tW3enrJM-37" vertex="1">
          <mxGeometry x="24" y="30" width="306" height="190" as="geometry" />
        </mxCell>
        <mxCell id="xJInYHNCrXJ5tW3enrJM-54" value="" style="aspect=fixed;html=1;points=[];align=center;image;fontSize=12;image=img/lib/azure2/general/Folder_Website.svg;" parent="xJInYHNCrXJ5tW3enrJM-53" vertex="1">
          <mxGeometry x="233.45" y="120" width="50" height="41.18" as="geometry" />
        </mxCell>
        <mxCell id="xJInYHNCrXJ5tW3enrJM-55" value="" style="aspect=fixed;perimeter=ellipsePerimeter;html=1;align=center;shadow=0;dashed=0;spacingTop=3;image;image=img/lib/active_directory/folder_open.svg;" parent="xJInYHNCrXJ5tW3enrJM-53" vertex="1">
          <mxGeometry x="233.45" y="28" width="36.8" height="40" as="geometry" />
        </mxCell>
        <mxCell id="xJInYHNCrXJ5tW3enrJM-56" value="" style="pointerEvents=1;shadow=0;dashed=0;html=1;strokeColor=none;labelPosition=center;verticalLabelPosition=bottom;verticalAlign=top;outlineConnect=0;align=center;shape=mxgraph.office.concepts.folder;fillColor=#7FBA42;" parent="xJInYHNCrXJ5tW3enrJM-53" vertex="1">
          <mxGeometry x="25" y="100" width="50" height="40" as="geometry" />
        </mxCell>
        <mxCell id="xJInYHNCrXJ5tW3enrJM-61" value="stories&lt;br&gt;" style="text;html=1;strokeColor=none;fillColor=none;align=center;verticalAlign=middle;whiteSpace=wrap;rounded=0;" parent="xJInYHNCrXJ5tW3enrJM-53" vertex="1">
          <mxGeometry x="233.45" y="68" width="45.5" height="20" as="geometry" />
        </mxCell>
        <mxCell id="xJInYHNCrXJ5tW3enrJM-68" value="components" style="text;html=1;strokeColor=none;fillColor=none;align=center;verticalAlign=middle;whiteSpace=wrap;rounded=0;" parent="xJInYHNCrXJ5tW3enrJM-53" vertex="1">
          <mxGeometry x="222.95" y="161.18" width="71" height="30" as="geometry" />
        </mxCell>
        <mxCell id="xJInYHNCrXJ5tW3enrJM-69" value="services" style="text;html=1;strokeColor=none;fillColor=none;align=center;verticalAlign=middle;whiteSpace=wrap;rounded=0;" parent="xJInYHNCrXJ5tW3enrJM-53" vertex="1">
          <mxGeometry x="30" y="145" width="40" height="20" as="geometry" />
        </mxCell>
        <mxCell id="xJInYHNCrXJ5tW3enrJM-66" value="" style="shadow=0;dashed=0;html=1;strokeColor=none;fillColor=#4495D1;labelPosition=center;verticalLabelPosition=bottom;verticalAlign=top;align=center;outlineConnect=0;shape=mxgraph.veeam.shared_folder;" parent="xJInYHNCrXJ5tW3enrJM-53" vertex="1">
          <mxGeometry x="25" y="28" width="50" height="40" as="geometry" />
        </mxCell>
        <mxCell id="xJInYHNCrXJ5tW3enrJM-67" value="utils" style="text;html=1;strokeColor=none;fillColor=none;align=center;verticalAlign=middle;whiteSpace=wrap;rounded=0;" parent="xJInYHNCrXJ5tW3enrJM-53" vertex="1">
          <mxGeometry x="30" y="68" width="40" height="20" as="geometry" />
        </mxCell>
        <mxCell id="xJInYHNCrXJ5tW3enrJM-73" value="" style="endArrow=classic;html=1;" parent="xJInYHNCrXJ5tW3enrJM-53" edge="1">
          <mxGeometry width="50" height="50" relative="1" as="geometry">
            <mxPoint x="200" y="118" as="sourcePoint" />
            <mxPoint x="90" y="68" as="targetPoint" />
          </mxGeometry>
        </mxCell>
        <mxCell id="xJInYHNCrXJ5tW3enrJM-70" value="" style="endArrow=classic;html=1;" parent="xJInYHNCrXJ5tW3enrJM-53" edge="1">
          <mxGeometry width="50" height="50" relative="1" as="geometry">
            <mxPoint x="286" y="148" as="sourcePoint" />
            <mxPoint x="386" y="100" as="targetPoint" />
          </mxGeometry>
        </mxCell>
        <mxCell id="xJInYHNCrXJ5tW3enrJM-63" value="" style="pointerEvents=1;shadow=0;dashed=0;html=1;strokeColor=none;labelPosition=center;verticalLabelPosition=bottom;verticalAlign=top;outlineConnect=0;align=center;shape=mxgraph.office.concepts.folder;fillColor=#DA4026;" parent="xJInYHNCrXJ5tW3enrJM-37" vertex="1">
          <mxGeometry x="425" y="25" width="50" height="40" as="geometry" />
        </mxCell>
        <mxCell id="xJInYHNCrXJ5tW3enrJM-64" value=".storybook" style="text;html=1;strokeColor=none;fillColor=none;align=center;verticalAlign=middle;whiteSpace=wrap;rounded=0;" parent="xJInYHNCrXJ5tW3enrJM-37" vertex="1">
          <mxGeometry x="407" y="65" width="86" height="25" as="geometry" />
        </mxCell>
        <mxCell id="xJInYHNCrXJ5tW3enrJM-71" value="" style="endArrow=classic;html=1;" parent="1" edge="1">
          <mxGeometry width="50" height="50" relative="1" as="geometry">
            <mxPoint x="260" y="280" as="sourcePoint" />
            <mxPoint x="150" y="280" as="targetPoint" />
            <Array as="points" />
          </mxGeometry>
        </mxCell>
        <mxCell id="xJInYHNCrXJ5tW3enrJM-72" value="" style="endArrow=classic;html=1;entryX=0.5;entryY=1;entryDx=0;entryDy=0;" parent="1" target="xJInYHNCrXJ5tW3enrJM-61" edge="1">
          <mxGeometry width="50" height="50" relative="1" as="geometry">
            <mxPoint x="330" y="240" as="sourcePoint" />
            <mxPoint x="330" y="260" as="targetPoint" />
          </mxGeometry>
        </mxCell>
      </root>
    </mxGraphModel>
  </diagram>
</mxfile>
